<?xml version="1.0" standalone="no"?><!DOCTYPE svg PUBLIC "-//W3C//DTD SVG 1.1//EN" "http://www.w3.org/Graphics/SVG/1.1/DTD/svg11.dtd"><svg t="1733654379726" class="icon" viewBox="0 0 1024 1024" version="1.1" xmlns="http://www.w3.org/2000/svg" p-id="12899" xmlns:xlink="http://www.w3.org/1999/xlink" width="200" height="200"><path d="M31.666925 786.476043v137.238022a68.619011 68.619011 0 0 0 68.61901 68.61901h137.227011V1024H100.285935A100.285935 100.285935 0 0 1 0 923.714065V786.476043h31.666925z m992.333075 0v137.238022A100.285935 100.285935 0 0 1 923.714065 1024H786.465032v-31.666925h137.249033a68.619011 68.619011 0 0 0 68.61901-68.61901V786.476043H1024zM237.523957 0v31.666925H100.285935a68.619011 68.619011 0 0 0-68.61901 68.61901v137.238022H0V100.285935A100.285935 100.285935 0 0 1 100.285935 0h137.238022z m686.190108 0A100.285935 100.285935 0 0 1 1024 100.285935v137.238022h-31.666925V100.285935a68.619011 68.619011 0 0 0-68.61901-68.61901H786.476043V0h137.238022z" fill="#227EFF" p-id="12900"></path><path d="M506.714839 121.404559c206.980129 0 374.772989 167.781849 374.772989 374.761979 0 206.969118-167.79286 374.761978-374.761979 374.761978-206.980129 0-374.761978-167.79286-374.761978-374.761978 0-206.980129 167.781849-374.761978 374.761978-374.761979z m5.285161 73.893161c-169.081118 0-306.142968 137.061849-306.142968 306.142968 0 169.081118 137.061849 306.142968 306.142968 306.142968 169.081118 0 306.142968-137.061849 306.142968-306.142968 0-169.081118-137.061849-306.142968-306.142968-306.142968z" fill="#227EFE" p-id="12901"></path><path d="M501.440688 269.190882c122.43957 0 221.690495 99.261935 221.690495 221.690494 0 122.43957-99.250925 221.690495-221.690495 221.690495-122.43957 0-221.690495-99.250925-221.690494-221.690495 0-122.43957 99.261935-221.690495 221.690494-221.690494z m0 147.797333a73.893161 73.893161 0 1 0 0 147.797333 73.893161 73.893161 0 0 0 0-147.797333z" fill="#6DADFF" p-id="12902"></path><path d="M501.440688 490.881376m-73.893161 0a73.893161 73.893161 0 1 0 147.786322 0 73.893161 73.893161 0 1 0-147.786322 0Z" fill="#FFFFFF" p-id="12903"></path><path d="M490.881376 58.059699H512V343.095054h-21.118624zM934.262366 480.333075v21.107613H649.249032v-21.107613zM512 923.714065h-21.118624V638.67871H512zM68.619011 501.440688v-21.107613h285.035355v21.107613z" fill="#227EFE" p-id="12904"></path></svg>