<?xml version="1.0" standalone="no"?><!DOCTYPE svg PUBLIC "-//W3C//DTD SVG 1.1//EN" "http://www.w3.org/Graphics/SVG/1.1/DTD/svg11.dtd"><svg t="1733654394737" class="icon" viewBox="0 0 1024 1024" version="1.1" xmlns="http://www.w3.org/2000/svg" p-id="14904" xmlns:xlink="http://www.w3.org/1999/xlink" width="200" height="200"><path d="M68.259877 953.861113a452.767625 65.800866 0 1 0 905.53525 0 452.767625 65.800866 0 1 0-905.53525 0Z" fill="#808080" opacity=".694" p-id="14905"></path><path d="M36.070194 498.15357a475.871022 475.846792 90 1 0 951.693584 0 475.871022 475.846792 90 1 0-951.693584 0Z" fill="#FFAAAA" p-id="14906"></path><path d="M664.615055 517.905137c-47.753482 0.767286-83.517105 51.016469-119.777444 53.035644-54.949821 3.061069-113.837033-61.746363-170.769684-46.336022-161.420904 43.686864-160.754576 229.64478-117.810768 353.460574a395.677479 395.677479 0 0 0 10.701626 27.384047 475.838715 475.838715 0 0 0 244.958201 68.571174 475.834677 475.834677 0 0 0 302.577371-109.067742c3.779895-10.196832 6.158483-17.534513 7.010574-19.977715 52.357201-149.737959-1.881871-319.146718-152.233659-326.985154-1.562841-0.080767-3.117606-0.109035-4.656217-0.084806z" fill="#FF5555" p-id="14907"></path><path d="M554.105623 562.339096c-19.949446-128.371052-84.248046-151.959051-87.369691-151.583485l-17.873734 7.777861c52.450083 41.8373 80.443921 90.644792 76.118848 144.463875z" fill="#AA4400" p-id="14908"></path><path d="M560.720439 482.904763s18.519871-11.117576 28.462287-15.224578c28.320945-11.69506 67.351592-3.860662 88.031979-26.475419 26.600608-29.088231 23.826262-115.836016 23.826262-115.836015s-23.483002 22.816674-37.72626 30.449154c-29.156883 15.624374-74.014869 3.937391-94.650835 29.786866-20.300783 25.433525-26.479457 65.748367-7.943433 97.299992z" fill="#E5FF80" p-id="14909"></path><path d="M699.825424 591.144643a12.644072 12.644072 0 1 0 25.288144 0 12.644072 12.644072 0 1 0-25.288144 0Z" fill="#FFFFFF" p-id="14910"></path><path d="M394.691778 537.099412a67.751389 67.751389 0 0 0-15.628412 2.253399c-157.152369 42.039218-146.65266 223.15919-104.847667 342.322806 3.105491 8.852062 4.187768 6.72789 7.99997 15.43861 59.416235 35.262867 130.321575 53.261791 199.320814 59.67469 131.246357-100.16722 202.313231-231.663954 82.907314-372.238899-3.097414 0.819785-6.186751 1.373039-9.276089 1.54265-48.484423 2.669349-109.964255-50.447061-160.47593-48.993256z" fill="#F13E3E" p-id="14911"></path><path d="M892.279159 396.76253a14.356332 14.356332 0 1 0 28.581962 2.736523 14.356332 14.356332 0 1 0-28.581962-2.736523Z" fill="#FFFFFF" p-id="14912"></path><path d="M119.538839 326.951784c-2.685502-1.68803 5.411388-25.05392 31.09529-59.509118 25.276029-33.893867 69.116351-79.470679 134.876833-113.530118 61.82713-31.894884 138.717304-51.828177 223.950707-49.578816l3.149913 0.092882c87.074891 2.806653 164.457743 27.557697 225.94969 60.575242 62.998251 33.784831 106.293396 74.72158 132.631511 106.450891 26.390614 31.797964 35.775738 53.617166 33.17504 55.499037-3.396252 2.463393-18.479487-15.075158-47.898862-41.340584-29.568795-26.39869-73.283927-60.841773-133.669367-89.42521-58.927595-27.860573-131.149437-48.876143-211.468169-51.396073l-2.907611-0.080767c-78.541858-1.962638-149.305856 14.360371-207.417705 40.973093-61.600982 28.066529-106.103593 66.871028-134.622417 95.345431-28.926697 28.874199-43.157841 48.242122-46.844853 45.92411z" fill="#FFFFFF" p-id="14913"></path></svg>